<?xml version="1.0" encoding="utf-8"?>
<!-- Generator: Adobe Illustrator 16.0.3, SVG Export Plug-In . SVG Version: 6.00 Build 0)  -->
<!DOCTYPE svg PUBLIC "-//W3C//DTD SVG 1.1//EN" "http://www.w3.org/Graphics/SVG/1.1/DTD/svg11.dtd">
<svg version="1.1" id="Capa_1" xmlns:serif="http://www.serif.com/"
	 xmlns="http://www.w3.org/2000/svg" xmlns:xlink="http://www.w3.org/1999/xlink" x="0px" y="0px" width="612px" height="792px"
	 viewBox="0 0 612 792" enable-background="new 0 0 612 792" xml:space="preserve">
<g transform="matrix(1.31196,0,0,1.3345,-350.71,-290.265)">
	<g id="_9---ECONOMY-ANALYSIS" serif:id="9 - ECONOMY ANALYSIS">
		<g id="CHART-POSTER-2" serif:id="CHART POSTER 2">
			<g>
				<rect x="520.377" y="534.663" fill="#5F90C1" width="129.101" height="102.752"/>
				<path fill="#FFF1E2" d="M557.664,581.792H537.45v43.155h20.214V581.792z M636.962,583.839h-20.215v41.108h20.215V583.839z
					 M610.531,572.324h-20.217v52.622h20.217V572.324z M584.097,557.589h-20.217v67.358h20.217V557.589z M631.275,577.069h-9.102
					v4.888h9.102V577.069z M551.719,575.17h-9.101v4.885h9.101V575.17z M604.973,566.021h-9.101v4.888h9.101V566.021z
					 M578.213,550.947h-9.099v4.888h9.099V550.947z"/>
			</g>
			<path fill="#1BE070" d="M595.762,617.159l39.724-42.227c0.566-0.602,1.518-0.632,2.124-0.064
				c0.602,0.569,0.631,1.521,0.065,2.124l-40.96,43.541c-0.307,0.325-0.742,0.497-1.186,0.471c-0.445-0.027-0.857-0.251-1.12-0.612
				l-28.463-38.792l-30.387,40.403c-0.499,0.663-1.44,0.798-2.104,0.298c-0.663-0.498-0.798-1.44-0.298-2.103l31.601-42.02
				c0.287-0.381,0.735-0.603,1.21-0.601c0.475,0.003,0.921,0.231,1.204,0.614L595.762,617.159z"/>
		</g>
		<g id="CURVE" transform="matrix(0.762218,0,0,0.749345,259.14,217.392)">
			<path fill="#64F4E3" d="M416.094,295.095c-0.206-0.58-0.318-1.204-0.318-1.854c0-3.048,2.473-5.522,5.521-5.522
				c3.047,0,5.522,2.475,5.522,5.522s-2.476,5.522-5.522,5.522c-0.741,0-1.446-0.146-2.094-0.411l-55.269,64.625
				c0.354,0.728,0.554,1.546,0.554,2.41c0,3.048-2.476,5.522-5.522,5.522c-3.049,0-5.521-2.475-5.521-5.522
				c0-0.151,0.004-0.3,0.018-0.448l-5.264-3.653c-0.937,0.727-2.11,1.16-3.385,1.16c-0.619,0-1.212-0.102-1.766-0.289
				l-55.833,73.581c0.17,0.533,0.262,1.1,0.262,1.688c0,3.047-2.473,5.522-5.521,5.522c-3.049,0-5.522-2.476-5.522-5.522
				c0-0.298,0.022-0.589,0.067-0.871l-34.415-34.493c-0.769,0.405-1.645,0.637-2.574,0.637c-0.555,0-1.093-0.084-1.599-0.238
				l-59.932,93.301c0.489,0.825,0.77,1.786,0.77,2.814c0,3.046-2.475,5.521-5.522,5.521s-5.522-2.476-5.522-5.521
				c0-3.049,2.474-5.524,5.522-5.524c0.376,0,0.743,0.038,1.098,0.109l60.17-93.673c-0.325-0.703-0.506-1.487-0.506-2.312
				c0-3.049,2.475-5.524,5.521-5.524c3.049,0,5.524,2.475,5.524,5.524c0,0.459-0.059,0.907-0.164,1.335l34.155,34.233
				c0.849-0.533,1.853-0.84,2.928-0.84c0.782,0,1.525,0.161,2.2,0.455l55.584-73.253c-0.289-0.669-0.45-1.408-0.45-2.183
				c0-3.048,2.476-5.522,5.524-5.522c3.046,0,5.521,2.475,5.521,5.522c0,0.129-0.005,0.257-0.014,0.383l5.307,3.682
				c0.928-0.705,2.084-1.124,3.338-1.124c0.538,0,1.058,0.077,1.548,0.22L416.094,295.095z"/>
		</g>
		<g id="CHART-POSTER-ONE" serif:id="CHART POSTER ONE">
			<rect x="358.201" y="403.327" fill="#5F90C1" width="133.763" height="99.337"/>
			<path fill="#FFF1E2" fill-opacity="0.64" d="M385.04,420.114h-9.102v72.875h9.102V420.114z M403.099,413.61h-9.102v79.341h9.102
				V413.61z M421.158,430.26h-9.101v62.648h9.101V430.26z M439.218,419.924h-9.102v72.938h9.102V419.924z M457.278,440.19h-9.102
				v52.623h9.102V440.19z M475.335,454.898h-9.102v37.86h9.102V454.898z"/>
		</g>
		<g id="UP-ARROW" transform="matrix(4.747e-17,-0.775243,0.908422,5.56248e-17,148.671,2354.33)" serif:id="UP ARROW">
			<path fill="#03FC77" d="M2254.709,399.063v-20.017h30.671v-13.701l39.608,23.71l-39.608,23.709v-13.701H2254.709z"/>
		</g>
		<g id="DOWN-ARROW" transform="matrix(4.747e-17,0.775243,-0.908422,5.56248e-17,3003.24,-447.894)" serif:id="DOWN ARROW">
			<path fill="#1AAD59" d="M1103.966,2634.782v-20.018h30.672v-13.7l39.607,23.709l-39.607,23.709v-13.7H1103.966z"/>
		</g>
		<g id="DOLLAR-" serif:id="DOLLAR ">
			<g transform="matrix(1,0,0,1,7.68225,2.33985)">
				<ellipse fill="#59E5EF" cx="556.793" cy="516.022" rx="39.763" ry="40.445"/>
			</g>
			<g transform="matrix(0.941798,-0.33618,0.33618,0.941798,-251.674,588.663)">
				<g transform="matrix(1.05464,0.000379216,-0.000281715,0.783484,-312.137,128.316)">
					<path fill="#5F90C1" d="M1047.49,73.516l-1.122,0l0-2.097l1.958,0c0.464,0,0.838,0.47,0.838,1.049l0,3.546
						c1.714,0.097,3.358,0.442,4.93,1.033c2.01,0.755,3.904,1.913,5.683,3.472c0.202,0.175,0.33,0.453,0.354,0.757
						c0.023,0.305-0.06,0.607-0.231,0.829l-3.772,4.915c-0.285,0.37-0.739,0.428-1.077,0.137c-1.754-1.508-3.717-2.426-5.887-2.758
						v11.816c8.085,2.146,11.969,6.997,11.859,14.254c-0.047,3.943-1.219,7.209-3.501,9.787c-2.085,2.441-4.868,4.014-8.358,4.684
						l-0.001,6.093c0.001,0.577-0.374,1.046-0.838,1.046l-1.922,0l0-2.094l1.087,0l-0.001-5.961c0-0.531,0.316-0.977,0.738-1.039
						c3.434-0.52,6.156-1.924,8.163-4.272c1.935-2.187,2.919-4.946,2.959-8.28c0.098-6.53-3.703-10.536-11.18-12.329
						c-0.395-0.097-0.679-0.529-0.679-1.032l0-13.825c0-0.289,0.096-0.565,0.264-0.764c0.168-0.198,0.394-0.3,0.625-0.28
						c2.592,0.204,4.933,1.118,7.021,2.737l2.598-3.385c-1.389-1.089-2.849-1.924-4.386-2.5c-1.678-0.632-3.441-0.954-5.294-0.974
						c-0.459-0.004-0.829-0.473-0.829-1.048L1047.49,73.516z M1049.163,116.461c1.217-0.461,2.106-1.11,2.642-1.996
						c0.333-0.572,0.578-1.214,0.732-1.927l1.615,0.559c-0.213,0.963-0.547,1.832-1.006,2.621c-0.878,1.449-2.412,2.524-4.646,3.117
						c-0.247,0.066-0.505-0.01-0.701-0.21c-0.195-0.2-0.309-0.499-0.309-0.816l0-7.41l1.674,0L1049.163,116.461z M1040.006,86.813
						c0.293-0.948,0.676-1.736,1.14-2.37c0.011-0.015,0.025-0.031,0.036-0.047c1.046-1.266,2.289-1.996,3.725-2.191
						c0.235-0.031,0.473,0.065,0.649,0.262c0.177,0.2,0.278,0.484,0.278,0.78l0,6.069l-1.673,0l0-4.785
						c-0.667,0.265-1.265,0.715-1.797,1.351c-0.329,0.457-0.594,1.028-0.804,1.707c-0.004,0.018-0.011,0.036-0.018,0.054
						c-0.253,0.704-0.37,1.557-0.37,2.55l-1.673,0C1039.499,88.876,1039.674,87.752,1040.006,86.813z"/>
				</g>
				<g transform="matrix(1.05464,0.000379216,-0.000281715,0.783484,-312.137,128.316)">
					<path fill="#5F90C1" d="M1040.747,94.584c-0.825-1.178-1.248-2.639-1.248-4.392l1.673,0c0.001,1.203,0.272,2.211,0.838,3.018
						l0.02,0.029c0.444,0.681,1.159,1.219,2.13,1.658l0-5.58l1.673,0l0,6.996c0,0.325-0.121,0.632-0.327,0.831
						c-0.204,0.198-0.472,0.267-0.723,0.184C1042.844,96.685,1041.511,95.742,1040.747,94.584z"/>
				</g>
				<g transform="matrix(1.05464,0.000379216,-0.000281715,0.783484,-312.137,128.316)">
					<path fill="#5F90C1" d="M1049.164,105.384v5.016l-1.674,0l0-6.288c0-0.308,0.107-0.598,0.293-0.798
						c0.188-0.199,0.435-0.286,0.676-0.237c2.337,0.477,3.896,1.42,4.729,2.681l0.018,0.031c0.811,1.325,1.221,2.859,1.221,4.601
						c0,0.975-0.094,1.878-0.276,2.707l-1.615-0.559c0.146-0.658,0.217-1.375,0.217-2.148c0-1.252-0.287-2.354-0.865-3.309
						C1051.365,106.298,1050.449,105.755,1049.164,105.384z"/>
				</g>
				<g transform="matrix(1.05464,0.000379216,-0.000281715,0.783484,-312.137,128.316)">
					<path fill="#5F90C1" d="M1044.161,104.167c-7.774-2.166-11.465-6.888-11.288-13.87c0.067-4.209,1.145-7.5,3.181-9.897
						c1.864-2.193,4.559-3.643,8.107-4.288l0-3.645c0-0.579,0.374-1.048,0.836-1.048l1.371,0l0,2.097l-0.533,0l0,3.517
						c0,0.534-0.318,0.981-0.741,1.042c-3.483,0.509-6.122,1.767-7.894,3.853c-1.725,2.032-2.594,4.843-2.653,8.425
						c-0.159,6.254,3.457,10.13,10.616,11.94c0.39,0.099,0.672,0.529,0.672,1.026l0,14.491c0,0.295-0.101,0.576-0.274,0.775
						c-0.175,0.2-0.408,0.296-0.643,0.269c-2.095-0.246-3.869-0.834-5.32-1.744c-1.277-0.717-2.42-1.607-3.43-2.67l-3.206,3.383
						c1.548,1.376,3.265,2.536,5.142,3.483c2.191,1.075,4.491,1.631,6.904,1.671c0.459,0.009,0.827,0.475,0.827,1.048v5.961
						l0.569,0.001l0,2.094l-1.406,0c-0.462,0.001-0.836-0.468-0.836-1.046l0-5.995c-2.321-0.143-4.543-0.739-6.673-1.785
						c-2.381-1.202-4.508-2.72-6.387-4.555c-0.197-0.193-0.315-0.49-0.32-0.806c-0.007-0.316,0.103-0.618,0.296-0.822l4.567-4.819
						c0.323-0.343,0.802-0.327,1.112,0.038c1.01,1.19,2.193,2.159,3.541,2.915l0.036,0.019c1.075,0.679,2.352,1.145,3.829,1.407
						L1044.161,104.167z"/>
				</g>
			</g>
		</g>
		<g id="MAGNIFYING-GLASS" serif:id="MAGNIFYING GLASS">
			<g>
				<path fill="#03FC77" d="M570.867,552.466c-2.251,0.463-4.585,0.708-6.973,0.708c-1.981,0-3.585-1.606-3.585-3.584
					s1.604-3.584,3.585-3.584c15.051,0,27.271-12.22,27.271-27.271c0-15.052-12.22-27.272-27.271-27.272
					c-1.981,0-3.585-1.606-3.585-3.584c0-1.978,1.604-3.584,3.585-3.584c19.007,0,34.439,15.432,34.439,34.441
					c0,14.088-8.478,26.211-20.607,31.543l22.468,53.001c0.773,1.821-0.078,3.927-1.9,4.698c-1.821,0.773-3.926-0.078-4.7-1.9
					L570.867,552.466z"/>
				<g transform="matrix(1,0,0,1,-20.3138,-7.3432)">
					<path fill="#03FC77" d="M584.207,553.348c-15.052,0-27.272-12.219-27.272-27.271c0-15.051,12.22-27.271,27.272-27.271
						c1.978,0,3.584-1.606,3.584-3.584c0-1.978-1.606-3.584-3.584-3.584c-19.008,0-34.44,15.432-34.44,34.439
						c0,19.008,15.432,34.44,34.44,34.44c1.978,0,3.584-1.606,3.584-3.584S586.185,553.348,584.207,553.348z"/>
				</g>
			</g>
		</g>
		<g id="BOY">
			<path fill="#FFDCC5" d="M612.153,564.144c0,0-1.929-7.245-1.291-16.481c0.901-12.99,9.214-24.294,21.347-29.025
				c12.13-4.73,25.902-2.038,35.358,6.912c2.185,2.077,4.176,4.517,5.851,7.387c8.235,14.112,10.905,29.67,3.97,45.042
				c0,0,4.469,29.352-1.969,50.51c-3.248,10.627-12.464,18.333-23.497,19.651c-0.371,0.049-0.746,0.091-1.125,0.136
				c-10.076,1.203-19.959-3.414-25.506-11.911c-10.799-16.546-27.41-41.993-27.41-41.993s-9.399,0.818-13.031,1.133
				c-1.299,0.116-2.462-0.8-2.652-2.09c-0.105-0.773,0.137-1.624,1.241-2.345c0,0-1.167-0.009-2.08-0.231
				c-1.443-0.348-2.021-1.581-2.083-2.904c-0.058-1.243,0.309-2.679,2-3.521l0,0c-2.13,0.401-4.196-0.959-4.666-3.073
				c-0.02-0.085-0.038-0.165-0.054-0.241c-0.173-0.768-0.063-1.573,0.307-2.267c0.349-0.661,0.952-1.385,1.982-1.821
				c0,0-1.003-0.311-2.088-0.648c-1.566-0.486-2.634-1.933-2.634-3.573v-0.002c0-1.454,0.878-2.767,2.224-3.322
				c2.924-1.212,7.7-3.188,7.7-3.188s-6.151-7.845-3.593-10.15c0.455-0.411,1.469-0.648,4.453,1.892
				c1.126,0.959,5.501,2.184,11.036,1.425C595.943,559.446,603.186,559.401,612.153,564.144z M618.81,479.728
				c9.411,0,17.052,7.641,17.052,17.053c0,9.411-7.641,17.052-17.052,17.052c-9.413,0-17.054-7.641-17.054-17.052
				C601.757,487.368,609.397,479.728,618.81,479.728z"/>
			<path fill="#82B5B2" d="M597.303,594.423l3.737-0.422c0.49-0.056,0.934,0.298,0.99,0.791c0.056,0.49-0.298,0.934-0.791,0.99
				l-2.272,0.255l-1.087-1.667L597.303,594.423z M579.732,589.643l10.795-0.997c0.493-0.047,0.93,0.315,0.974,0.809
				c0.048,0.492-0.316,0.929-0.808,0.975l-7.305,0.674c0.016-0.011,0.033-0.023,0.051-0.034c0,0-1.167-0.009-2.08-0.231
				C580.585,590.653,580.061,590.214,579.732,589.643z M577.797,583.411c0.08-0.047,0.172-0.083,0.269-0.105l10-2.155
				c0.482-0.105,0.959,0.204,1.064,0.688c0.104,0.482-0.203,0.959-0.688,1.064l-7.278,1.57c0.036-0.02,0.074-0.04,0.112-0.059l0,0
				C579.976,584.659,578.701,584.249,577.797,583.411z M575.988,576.027l10.667-3.286c0.473-0.145,0.974,0.119,1.12,0.592
				c0.145,0.472-0.121,0.974-0.594,1.12l-8.425,2.596c0.029-0.013,0.058-0.027,0.087-0.038c0,0-1.003-0.311-2.088-0.648
				C576.486,576.278,576.228,576.166,575.988,576.027z M582.964,564.784l3.732-1.543c0.457-0.19,0.981,0.027,1.172,0.484
				c0.188,0.46-0.029,0.984-0.486,1.172l-3.338,1.38C584.015,566.238,583.562,565.658,582.964,564.784z"/>
			<path fill="#03FC77" d="M612.07,563.805c-0.365-1.527-1.765-8.075-1.207-16.142c0.901-12.99,9.214-24.294,21.347-29.025
				c12.13-4.73,25.902-2.038,35.358,6.912c2.185,2.077,4.176,4.517,5.851,7.387c8.235,14.112,10.905,29.67,3.97,45.042
				c0,0,4.469,29.352-1.969,50.51c-3.248,10.627-12.464,18.333-23.497,19.651c-0.371,0.049-0.746,0.091-1.125,0.136
				c-10.076,1.203-19.959-3.414-25.506-11.911l-7.394-11.328l25.141-29.382C629.895,575.197,615.58,565.886,612.07,563.805z"/>
			<path fill="#28625E" d="M642.941,595.507c0.045,0.042,0.088,0.094,0.124,0.148l16.238,24.512c0.273,0.414,0.161,0.97-0.251,1.243
				c-0.412,0.273-0.968,0.159-1.241-0.253l-15.97-24.104l1.197-1.398L642.941,595.507z M677.544,579.112l0.04,0.318l-0.049,0.103
				c0,0-3.587-19.966-8.732-35.23c-0.124-0.316,0.02-0.673,0.325-0.816c0.304-0.146,0.67-0.029,0.837,0.265
				c2.74,5.32,6.497,13.283,10.661,24c-0.061,0.318-0.124,0.637-0.191,0.952l-0.002,0.012l-0.031,0.148l-0.002,0.013l-0.034,0.15
				l-0.002,0.009c-0.067,0.316-0.141,0.632-0.217,0.945l-0.002,0.011l-0.036,0.143l-0.004,0.023l-0.034,0.139l-0.009,0.026
				l-0.034,0.137l-0.007,0.025l-0.036,0.141l-0.002,0.009c-0.054,0.206-0.11,0.412-0.166,0.621l-0.004,0.013l-0.036,0.133
				l-0.011,0.038l-0.033,0.121l-0.013,0.048l-0.034,0.119l-0.013,0.049l-0.034,0.116l-0.013,0.05l-0.036,0.119l-0.011,0.04
				l-0.038,0.125c-0.016,0.054-0.031,0.108-0.049,0.162l-0.042,0.139l-0.007,0.022l-0.034,0.112l-0.018,0.059l-0.033,0.103
				l-0.02,0.067l-0.031,0.099l-0.022,0.072l-0.031,0.097l-0.025,0.074l-0.031,0.096l-0.025,0.074l-0.031,0.094l-0.025,0.076
				l-0.031,0.094l-0.031,0.089l-0.022,0.072L679,573.906l-0.029,0.088l-0.029,0.085l-0.032,0.087l-0.029,0.083l-0.031,0.087
				l-0.029,0.083l-0.031,0.09l-0.029,0.081l-0.034,0.091l-0.03,0.079l-0.034,0.096l-0.027,0.074l-0.042,0.112l-0.022,0.059
				l-0.063,0.168l-0.022,0.056l-0.043,0.114l-0.027,0.07l-0.038,0.101l-0.029,0.074l-0.038,0.098l-0.029,0.075l-0.038,0.098
				l-0.03,0.074l-0.04,0.101l-0.029,0.07l-0.045,0.11l-0.025,0.06l-0.058,0.141l-0.012,0.029l-0.071,0.171l-0.02,0.051l-0.051,0.119
				l-0.027,0.067l-0.045,0.105l-0.03,0.07l-0.045,0.101l-0.029,0.072l-0.045,0.103l-0.031,0.069l-0.045,0.105l-0.029,0.065
				l-0.052,0.116l-0.025,0.054l-0.076,0.173l0.013,0.089l0.002,0.029l0.013,0.083l0.004,0.04l0.018,0.119l0.007,0.045l0.02,0.159
				l0.007,0.047l0.029,0.202l0.004,0.04l0.034,0.255L677.544,579.112z M620.557,569.905c0,0-0.853-6.597-2.002-25.986
				c-0.027-0.432,0.271-0.566,0.435-0.602c0.291-0.065,0.513,0.123,0.54,0.289l4.805,29.592
				C623.006,571.977,621.742,570.882,620.557,569.905z"/>
			<path d="M605.527,486.092c3.127-3.88,7.916-6.365,13.284-6.365c9.411,0,17.052,7.641,17.052,17.053
				c0,5.325-2.446,10.083-6.274,13.211l-5.953-5.912c0.634-0.045,1.288-0.213,1.923-0.515c2.242-1.068,2.817-3.874,1.955-5.687
				c-0.865-1.812-3.385-2.416-5.625-1.349c-1.454,0.693-1.895,2.389-2.168,3.66L605.527,486.092z"/>
		</g>
		<g id="WORLD">
			<g transform="matrix(1,0,0,1,-479.57,-66.72)">
				<ellipse fill="#70E0D5" cx="934.895" cy="569.612" rx="39.762" ry="40.446"/>
			</g>
			<path fill="#5F90C1" d="M425.786,496.085c0.219-0.098,0.487-0.155,0.811-0.098c0.638,0.112,1.091,0.659,1.11,1.282
				c0.212,0.376,0.785,1.36,1.467,2.287c1.612,2.19,4.332,5.336,8.098,8.547c1.725-7.38,5.027-13.534,8.678-18.467
				c-5.392-4.161-8.358-7.993-8.961-8.724c-0.473-0.573-0.39-1.42,0.182-1.892c0.574-0.472,1.42-0.39,1.893,0.182
				c0.576,0.698,3.401,4.346,8.539,8.306c7.003-8.588,14.588-12.863,14.588-12.863c0.645-0.364,1.465-0.136,1.83,0.511
				c0.365,0.646,0.137,1.466-0.511,1.831c0,0-7.135,4.023-13.75,12.102c5.123,3.562,12.09,7.097,20.948,8.738
				c0.952-6.462,0.605-12.465-0.065-16.915c-0.11-0.734,0.397-1.419,1.129-1.529c0.735-0.111,1.42,0.395,1.53,1.129
				c0.703,4.674,1.055,10.963,0.056,17.741c3.447,0.469,7.162,0.647,11.142,0.438c0.329-0.017,0.634,0.085,0.878,0.268
				c0.085,0.652,0.148,1.31,0.192,1.974c-0.231,0.256-0.558,0.424-0.929,0.443c-4.194,0.221-8.107,0.03-11.743-0.467
				c-1.302,6.556-3.945,13.419-8.797,19.616c4.879,0.708,10.215,0.751,15.99-0.168c-0.753,1.067-1.575,2.084-2.455,3.043
				c-5.607,0.613-10.797,0.37-15.557-0.475c-3.255,3.589-7.339,6.893-12.437,9.704c-0.018,0.011-0.038,0.021-0.058,0.029
				c-0.551-0.105-1.095-0.227-1.635-0.361c-0.049-0.061-0.094-0.125-0.132-0.197c-0.358-0.65-0.121-1.468,0.529-1.826
				c4.254-2.348,7.76-5.058,10.636-7.997c-7.979-1.917-14.63-5.487-19.865-9.313c-0.587,4.353-0.585,9.103,0.24,14.251
				c0.072,0.452-0.092,0.889-0.401,1.185c-0.829-0.533-1.629-1.104-2.399-1.714c-0.807-5.665-0.672-10.867,0.121-15.601
				c-6.354-5.157-10.171-10.367-11.244-12.33c-0.038-0.069-0.073-0.136-0.105-0.201C425.446,497.717,425.6,496.894,425.786,496.085z
				 M448.102,491.218c-3.663,4.957-6.955,11.214-8.49,18.778c5.435,4.166,12.627,8.148,21.449,9.988
				c5.125-6.09,7.865-12.952,9.185-19.505C460.864,498.75,453.499,494.992,448.102,491.218z M426.585,498.636
				c-0.063,0.011-0.127,0.017-0.191,0.018c-0.064,0.001-0.13-0.002-0.196-0.01C426.338,498.662,426.467,498.658,426.585,498.636z"/>
		</g>
		<g id="GIRL">
			<g>
				<path fill="#FFDCC5" d="M351.87,560.138c0,0-44.541-35.242-13.602-76.983c3.293-4.442,23.275-30.336,51.67-47.887
					c1.109-0.688,2.536-0.573,3.522,0.282c0.628,0.558,1.037,1.412,0.632,2.721c0,0,4.394-0.958,4.092,3.264
					c0,0,5.146-1.38,5.324,3.921c0,0,8.507-10.425,12.214-14.966c0.971-1.19,2.67-1.487,3.986-0.696c0,0,0,0,0,0
					c0.598,0.359,1.028,0.941,1.196,1.617c0.168,0.677,0.061,1.392-0.299,1.989c-15.815,26.192-32.625,50.221-49.486,74.141
					c0,0,13.909,14.07,21.076,19.135c2.91,2.055,31.993,20.226,36.199,30.177c0,0,0.355-2.281,0.759-4.877
					c0.7-4.503,4.019-8.149,8.432-9.274c2.993-0.762,5.771-1.469,5.771-1.469s4.964-0.847,9.191-0.813
					c2.769,0.02,5.215,1.801,6.088,4.427l0,0c0.401,1.212,0.233,2.54-0.461,3.611c-0.392,0.607-0.74,1.14-0.74,1.14
					s0.997,0.339,1.922,0.652c0.986,0.334,1.781,1.071,2.191,2.028l0,0c0.798,1.863,0.455,4.02-0.882,5.546
					c-0.417,0.477-0.726,0.829-0.726,0.829h0.302c1.577,0,2.995,0.959,3.584,2.424l0,0c0.809,2.012,0.155,4.315-1.588,5.603
					c-0.432,0.318-0.732,0.542-0.732,0.542c0.546-0.186,1.057,0.19,1.416,1.052c0.71,1.705,0.058,3.674-1.488,4.684
					c-2.41,1.575-5.591,3.654-5.591,3.654c-0.715,14.702-2.491,30.56-10.836,49.46c-2.518,5.683-7.471,9.919-13.474,11.526
					c-0.004,0.004-0.009,0.004-0.013,0.007c-12.567,3.36-25.737-2.757-31.274-14.527c-2.658-5.656-5.497-12.628-8.049-20.837
					c0,0-10.564,1.38-21.076-3.943C358.49,591.903,345.939,577.41,351.87,560.138z"/>
				<path fill="#03FC77" d="M332.876,536.131c1.326-4.072,5.957-13.22,20.661-12.359c0,0,5.215-15.207,21.705-12.147
					c4.678,4.561,12.259,11.737,16.952,15.052c2.91,2.055,31.993,20.226,36.199,30.177l0.049-0.312
					c2.714,7.966,7.643,25.063,5.166,43.564c0,0-9.764,6.53-19.261-1.674c0,0-8.99,11.927-21.991,4.321
					c-0.054-0.173-0.108-0.343-0.161-0.515c0,0-10.564,1.38-21.076-3.943c-12.628-6.393-25.179-20.887-19.248-38.158
					C351.87,560.138,340.111,550.835,332.876,536.131z M394.691,522.713l3.826,2.381
					C397.137,524.464,395.852,523.662,394.691,522.713z"/>
				<path fill="#FD9500" d="M432.269,595.803l-2.171,24.516c-0.044,0.492,0.321,0.929,0.814,0.973
					c0.493,0.045,0.927-0.32,0.972-0.814l2.168-24.515c0.045-0.493-0.32-0.93-0.813-0.973
					C432.746,594.945,432.312,595.31,432.269,595.803z"/>
				<path fill="#19BF60" d="M385.747,602.275c-0.764-8.969,1.276-16.263,2.639-19.982c0.109-0.26,0.386-0.403,0.661-0.347
					c0.275,0.056,0.473,0.298,0.472,0.578c0.264,7.292,2.184,17.114,2.802,20.123c-0.043-0.137-0.085-0.271-0.128-0.408
					C392.193,602.239,389.618,602.575,385.747,602.275z M345.661,554.265c3.243-4.023,6.448-7.068,9.432-9.373
					c4.596-3.551,8.666-5.347,11.536-6.266c0.332-0.074,0.67,0.1,0.803,0.412c0.133,0.314,0.023,0.676-0.261,0.865
					c-8.683,5.941-13.635,16.229-15.311,20.228C351.697,559.999,349.104,557.919,345.661,554.265z"/>
				<path fill="#FD9500" d="M461.521,567.215c0.542-0.17,1.044,0.208,1.398,1.059c0.02,0.048,0.038,0.094,0.056,0.141
					c-1.655,1.035-5.255,3.078-8.544,3.533c-0.491,0.067-0.943-0.276-1.01-0.764c-0.069-0.49,0.274-0.943,0.764-1.011
					C456.908,569.798,459.856,568.223,461.521,567.215z M459.939,558.653h0.3c0.73,0,1.427,0.206,2.023,0.573
					c-0.988,0.722-4.924,3.464-9.048,4.445c-0.482,0.114-0.964-0.184-1.08-0.665c-0.114-0.48,0.184-0.964,0.665-1.078
					C455.616,561.256,458.335,559.697,459.939,558.653z M457.443,549.603l1.783,0.604c-1.642,2.121-4.722,5.275-9.012,6.136
					c-0.484,0.098-0.956-0.217-1.055-0.702c-0.096-0.486,0.217-0.959,0.703-1.055C453.351,553.886,455.927,551.458,457.443,549.603z
					"/>
				<path fill="#FD9500" d="M445.455,543.696c0,0-3.058,0.675-6.281,0.215c-0.491-0.07-0.943,0.273-1.015,0.762
					c-0.069,0.49,0.274,0.943,0.762,1.013c3.551,0.506,6.92-0.238,6.92-0.238c0.482-0.108,0.789-0.587,0.681-1.068
					C446.416,543.895,445.936,543.59,445.455,543.696z"/>
				<path fill="#FD9500" d="M403.012,443.246c0.281,0.561,0.464,1.284,0.495,2.21l1.352-1.657c-0.026,0.048-0.058,0.094-0.093,0.138
					l-3.353,4.06c-0.315,0.381-0.88,0.435-1.261,0.12c-0.381-0.315-0.435-0.88-0.12-1.262L403.012,443.246z M397.728,439.327
					c0.333,0.5,0.525,1.208,0.454,2.205l-2.079,2.38c-0.325,0.373-0.892,0.411-1.264,0.086c-0.373-0.325-0.411-0.892-0.086-1.264
					L397.728,439.327z M393.873,436.017c0.365,0.538,0.523,1.266,0.217,2.255h0c-1.122,1.057-2.416,2.285-2.416,2.285
					c-0.359,0.34-0.927,0.325-1.267-0.034c-0.34-0.359-0.325-0.926,0.033-1.267C390.442,439.256,392.733,437.083,393.873,436.017z"
					/>
				<path fill="#FD9500" d="M371.117,507.542c0,0-5.913-5.839-9.416-9.297c-0.24-0.238-0.277-0.609-0.087-0.887
					c0.189-0.279,0.553-0.387,0.868-0.259c4.622,1.881,12.464,5.072,12.464,5.072L371.117,507.542z"/>
			</g>
			<g transform="matrix(0.859489,0.511155,-0.511155,0.859489,251.905,-741.212)">
				<g>
					<g transform="matrix(0.859489,-0.511155,0.511155,0.859489,162.365,765.825)">
						<path fill="#03FC77" d="M442.566,545.799l1.36-9.973c-2.173-0.752-4.301-1.734-6.355-2.956c-1.7-1.011-2.26-3.213-1.25-4.913
							c1.012-1.7,3.214-2.258,4.912-1.247c12.937,7.695,29.686,3.436,37.381-9.5c7.693-12.936,3.436-29.685-9.501-37.379
							c-1.7-1.011-2.26-3.212-1.248-4.912c1.01-1.7,3.212-2.26,4.912-1.249c16.337,9.716,21.712,30.868,11.996,47.204
							c-7.202,12.11-20.685,18.196-33.835,16.579l-0.885,6.487C448.433,544.708,445.745,545.703,442.566,545.799z"/>
					</g>
					<g transform="matrix(1,0,0,1,-20.3138,-7.3432)">
						<path fill="#03FC77" d="M831.145,1000.329c-15.051,0-27.271-12.22-27.271-27.271c0-15.051,12.22-27.271,27.271-27.271
							c1.978,0,3.584-1.606,3.584-3.584c0-1.978-1.606-3.584-3.584-3.584c-19.007,0-34.439,15.432-34.439,34.439
							c0,19.007,15.432,34.44,34.44,34.44c1.978,0,3.584-1.606,3.584-3.584C834.729,1001.935,833.123,1000.328,831.145,1000.329z"/>
					</g>
				</g>
			</g>
			<g>
				<ellipse fill="#FFDCC5" cx="405.82" cy="509.056" rx="23.117" ry="23.515"/>
				<path d="M399.692,516.016c-3.178,0.548-6.561,0.626-10.07-0.014c-0.916-2.131-1.424-4.48-1.424-6.946
					c0-9.725,7.896-17.621,17.621-17.621c7.752,0,14.341,5.016,16.696,11.976c-0.738,3.313-6.283,9.931-17.673,11.28
					c0.369-0.943,0.399-2.088,0.002-3.202c-0.778-2.185-2.906-3.427-4.749-2.771c-1.843,0.656-2.707,2.963-1.929,5.149
					C398.486,514.765,399.032,515.503,399.692,516.016z"/>
				<g transform="matrix(0.715949,0,0,0.715949,270.378,125.494)">
					<ellipse cx="197.663" cy="492.615" rx="15.766" ry="16.037"/>
				</g>
			</g>
		</g>
		<g id="PIE-CHART" serif:id="PIE CHART">
			<g transform="matrix(1,0,0,1,-10.5812,7.59404)">
				<path fill="#03FC77" d="M549.939,432.437c-6.485,12.288-19.395,20.668-34.246,20.668c-21.367,0-38.716-17.348-38.716-38.717
					c0-13.003,6.425-24.518,16.277-31.531l22.44,31.531L549.939,432.437z"/>
			</g>
			<path fill="#18B259" d="M505.111,421.982l-22.439-31.531c5.618-4.017,12.358-6.56,19.657-7.075L505.111,421.982z"/>
			<path fill="#A8CFCC" d="M503.337,383.31l1.775-0.045c10.885,0,20.728,4.502,27.759,11.751l-27.759,26.966l-2.782-38.606
				l0.524-0.04L503.337,383.31z"/>
			<g transform="matrix(1,0,0,1,46.71,-10.1252)">
				<path fill="#5F90C1" d="M496.624,402.873c6.783,6.967,10.958,16.483,10.958,26.966c0,6.517-1.615,12.661-4.471,18.049
					l-34.247-18.049L496.624,402.873z"/>
			</g>
		</g>
	</g>
</g>
</svg>
